<?xml version="1.0" encoding="UTF-8" standalone="no"?>
<svg
   xmlns:dc="http://purl.org/dc/elements/1.1/"
   xmlns:cc="http://creativecommons.org/ns#"
   xmlns:rdf="http://www.w3.org/1999/02/22-rdf-syntax-ns#"
   xmlns:svg="http://www.w3.org/2000/svg"
   xmlns="http://www.w3.org/2000/svg"
   xmlns:sodipodi="http://sodipodi.sourceforge.net/DTD/sodipodi-0.dtd"
   xmlns:inkscape="http://www.inkscape.org/namespaces/inkscape"
   height="439.17984pt"
   viewBox="0 0 530.67755 439.17984"
   width="530.67755pt"
   version="1.1"
   id="svg28"
   sodipodi:docname="world_analysis.svg"
   inkscape:version="0.92.3 (2405546, 2018-03-11)">
  <metadata
     id="metadata34">
    <rdf:RDF>
      <cc:Work
         rdf:about="">
        <dc:format>image/svg+xml</dc:format>
        <dc:type
           rdf:resource="http://purl.org/dc/dcmitype/StillImage" />
        <dc:title></dc:title>
      </cc:Work>
    </rdf:RDF>
  </metadata>
  <defs
     id="defs32" />
  <sodipodi:namedview
     pagecolor="#ffffff"
     bordercolor="#666666"
     borderopacity="1"
     objecttolerance="10"
     gridtolerance="10"
     guidetolerance="10"
     inkscape:pageopacity="0"
     inkscape:pageshadow="2"
     inkscape:window-width="1920"
     inkscape:window-height="1017"
     id="namedview30"
     showgrid="false"
     inkscape:zoom="0.50466895"
     inkscape:cx="-149.01968"
     inkscape:cy="164.42382"
     inkscape:window-x="-8"
     inkscape:window-y="-8"
     inkscape:window-maximized="1"
     inkscape:current-layer="svg28"
     fit-margin-top="0"
     fit-margin-left="0"
     fit-margin-right="0"
     fit-margin-bottom="0" />
  <g
     id="g4724"
     transform="matrix(0.8545863,0,0,0.8545863,-0.12306043,-3.6523583e-4)">
    <circle
       id="circle4645"
       r="211.36"
       cy="216.70799"
       cx="216.54401"
       style="fill:#9ccce7;fill-opacity:1" />
    <g
       id="g4657"
       style="fill:#abdda6;fill-opacity:1">
	<path
   id="path4647"
   d="M 106.464,393.828 C 59.437,364.404 25.939,317.594 13.264,263.588 l -3.84,-16.8 15.28,8 c 8.2,4.623 17.329,7.357 26.72,8 10.156,-0.142 18.605,7.776 19.12,17.92 13.229,6.674 22.239,19.528 24,34.24 0.444,5.413 3.407,10.302 8,13.2 3.948,2.13 8.398,3.152 12.88,2.96 5.207,-0.072 10.379,-0.88 15.36,-2.4 l 3.52,-1.04 3.12,2 c 1.287,0.821 2.379,1.913 3.2,3.2 3.36,5.28 2.64,13.84 -2.24,25.52 -5,12.797 -12.507,24.465 -22.08,34.32 l -4.48,4.4 z"
   style="fill:#abdda6;fill-opacity:1"
   inkscape:connector-curvature="0" />

	<path
   id="path4649"
   d="m 242.544,400.708 c -6.12,0.263 -12.02,-2.303 -16,-6.96 -9.6,-11.44 -8,-33.68 -5.28,-50.32 10.4,-60.08 -16.64,-66.08 -38.4,-70.88 l -2.16,0.16 c -15.12,-3.36 -26.96,-24.48 -26.64,-40 -0.847,-7.302 4.066,-14.027 11.28,-15.44 12.962,-3.027 23.626,-12.198 28.56,-24.56 l 2,-4.48 h 4.96 4.4 c 19.371,0.671 38.412,5.214 56,13.36 8,2.96 15.36,6 23.52,8.48 27.92,8.4 36.16,22.08 30.32,50.4 -5.04,24.48 12.24,31.28 16,32 h 1.04 l 15.28,10.16 11.52,2.08 -5.36,10.08 c -5.12,9.76 -19.92,25.92 -42.8,46.64 -36,32.72 -56.96,39.28 -68.24,39.28 z"
   style="fill:#abdda6;fill-opacity:1"
   inkscape:connector-curvature="0" />

	<path
   id="path4651"
   d="m 11.904,212.708 c -1.342,-2.037 -2.468,-4.209 -3.36,-6.48 v -1.6 -1.68 c 2.769,-44.101 19.59,-86.155 48,-120 l 4.8,-5.76 41.52,30.64 c 3.28,1.6 12,8 7.36,28.24 l -3.44,15.04 -10.24,-11.28 c -1.908,-2.133 -3.231,-4.724 -3.84,-7.52 l -16.8,3.28 c 1.12,2.96 5.6,16.72 -3.28,25.2 -3.033,2.587 -6.464,4.667 -10.16,6.16 -9.36,4.4 -20.96,9.92 -30.88,34.4 -1.594,4.265 -3.746,8.3 -6.4,12 l -6.96,8.88 z"
   style="fill:#abdda6;fill-opacity:1"
   inkscape:connector-curvature="0" />

	<path
   id="path4653"
   d="m 152.544,81.188 c -7.758,-2.4 -14.543,-7.223 -19.36,-13.76 -8.523,-11.599 -9.125,-27.219 -1.52,-39.44 l 1.36,-2.56 2.72,-0.72 c 25.589,-10.695 53.066,-16.137 80.8,-16 h 7.12 6.32 l 1.68,6.24 c 0.912,3.96 0.431,8.113 -1.36,11.76 -3.84,7.36 -13.36,11.92 -28.4,13.6 -19.55,1.277 -35.668,15.806 -38.96,35.12 l -1.84,8.72 z"
   style="fill:#abdda6;fill-opacity:1"
   inkscape:connector-curvature="0" />

	<path
   id="path4655"
   d="m 363.104,265.348 c -4.48,-6 -13.68,-22.96 -22.8,-40 -5.081,-10.459 -10.91,-20.539 -17.44,-30.16 l -1.52,-1.28 c -24.4,-20.72 -44.96,-31.28 -61.12,-31.28 -2.396,-10e-4 -4.784,0.268 -7.12,0.8 -2.755,0.634 -5.573,0.956 -8.4,0.96 -22.56,0 -39.12,-20.08 -46.88,-32 l -1.52,-2.32 v -2.8 c 1.967,-6.296 6.376,-11.541 12.24,-14.56 4.716,-3.328 10.245,-5.318 16,-5.76 h 7.44 l 0.56,7.44 c 0.065,0.852 0.065,1.708 0,2.56 -2.08,24 16.56,26.16 16.72,26.16 l 4.56,-10.96 8,5.36 c 6.619,4.006 14.269,5.981 22,5.68 5.141,-0.042 10.264,-0.632 15.28,-1.76 14.24,-3.2 18.24,-7.36 18.4,-8 1.76,-10.4 0.8,-24 -3.04,-26.32 -0.421,-0.099 -0.859,-0.099 -1.28,0 -1.665,0.251 -3.192,1.07 -4.32,2.32 -4.162,3.984 -9.336,6.751 -14.96,8 l -9.12,1.92 -0.56,-9.28 c 0,-4.88 -0.72,-11.36 -1.28,-17.44 v -4 l 3.04,-2.72 c 9.12,-8 45.6,-18.56 65.68,-23.44 l 4.16,-1.04 3.12,2.96 c 42.146,39.462 66.117,94.583 66.24,152.32 -0.022,7.806 -0.476,15.604 -1.36,23.36 v 2.88 l -2.16,2 c -14.223,13.137 -32.277,21.379 -51.52,23.52 h -4.24 z"
   style="fill:#abdda6;fill-opacity:1"
   inkscape:connector-curvature="0" />

</g>
    <path
       id="path4659"
       d="m 360.064,54.628 -0.64,-0.56 c -89.047,-78.604 -224.851,-70.563 -304,18 l -0.56,0.56 C 22.538,108.926 3.4,155.066 0.544,203.588 c 0,4.32 -0.4,8.64 -0.4,12.96 0.02,10.091 0.742,20.169 2.16,30.16 0,0 0,0 0,0.56 9.333,65.123 47.701,122.498 104.32,156 0.54,0.421 1.131,0.77 1.76,1.04 103.472,59.897 235.91,24.573 295.807,-78.9 51.664,-89.249 33.2,-202.552 -44.127,-270.78 z m -221.2,-22.88 c 24.562,-10.478 50.977,-15.919 77.68,-16 h 7.28 c 0.528,2.197 0.302,4.507 -0.64,6.56 -2.48,4.72 -10.32,8 -22.16,9.36 -23.027,1.581 -41.992,18.695 -45.92,41.44 -6.431,-1.85 -12.061,-5.791 -16,-11.2 -8.8,-10.8 -2.96,-24.96 -0.24,-30.16 z m -76.32,56.56 35.44,26.16 c 0.499,0.416 1.068,0.741 1.68,0.96 2.4,1.2 5.44,6.64 2.56,19.04 -1.003,-1.137 -1.692,-2.515 -2,-4 -0.957,-4.228 -5.108,-6.924 -9.36,-6.08 l -16.8,3.28 c -4.341,0.822 -7.194,5.007 -6.372,9.349 0.099,0.524 0.251,1.037 0.452,1.531 0,0 4.16,11.12 -1.36,16 -2.415,1.966 -5.112,3.557 -8,4.72 -10,4.72 -24,11.28 -34.88,38.64 -1.217,3.826 -2.968,7.462 -5.2,10.8 -0.902,-1.652 -1.626,-3.395 -2.16,-5.2 2.736,-42.305 18.845,-82.646 46,-115.2 z m -41.44,173.44 c 9.329,5.263 19.714,8.379 30.4,9.12 5.96,-0.05 10.9,4.607 11.2,10.56 0.315,2.867 2.149,5.343 4.8,6.48 10.59,5.527 17.729,15.967 19.04,27.84 0.774,7.8 5.156,14.787 11.84,18.88 11.92,7.12 28.24,3.28 34.56,1.36 0.323,0.204 0.596,0.477 0.8,0.8 0.48,0.72 2.56,5.12 -2.88,18.16 -4.494,11.898 -11.321,22.778 -20.08,32 -45.315,-28.189 -77.574,-73.225 -89.68,-125.2 z m 195.44,155.6 c -31.839,0.027 -63.221,-7.571 -91.52,-22.16 8.774,-10.234 15.728,-21.896 20.56,-34.48 5.84,-14.16 6.4,-25.2 1.6,-32.8 -3.126,-4.907 -8.363,-8.073 -14.16,-8.56 -1.088,-0.06 -2.177,0.104 -3.2,0.48 -7.458,2.986 -15.732,3.241 -23.36,0.72 -2.552,-1.631 -4.137,-4.413 -4.24,-7.44 -1.998,-15.8 -11.062,-29.837 -24.64,-38.16 -2.799,-12.175 -13.749,-20.722 -26.24,-20.48 -12.239,-1.868 -23.878,-6.55 -34,-13.68 -0.64,-5.28 -1.12,-10.64 -1.36,-16 0.559,0.039 1.121,0.039 1.68,0 h 0.72 c 10.4,0 16.56,-12.08 20.24,-21.2 8.72,-21.6 18,-25.92 26.88,-30.16 4.498,-1.965 8.635,-4.669 12.24,-8 6.391,-6.521 9.224,-15.735 7.6,-24.72 l 2.08,-0.4 c 4.222,6.718 11.306,11.116 19.2,11.92 3.543,0.209 6.8,-1.94 8,-5.28 5.293,-11.541 5.839,-24.7 1.52,-36.64 -1.991,-4.399 -5.399,-8.005 -9.68,-10.24 l -33.12,-23.68 c 13.484,-13.747 28.867,-25.493 45.68,-34.88 -2.008,11.019 0.916,22.364 8,31.04 5.976,7.994 14.406,13.81 24,16.56 1.12,0 2.64,0.88 2.96,1.36 0.87,3.689 4.211,6.261 8,6.16 h 1.12 c 3.976,-0.562 6.92,-3.985 6.88,-8 0,-3.68 -0.8,-36.4 32.96,-40 17.84,-1.92 29.52,-8 34.64,-17.84 2.026,-3.921 2.965,-8.313 2.72,-12.72 35.338,3.988 68.973,17.326 97.44,38.64 -64.96,16.72 -64,28.72 -63.2,34.08 1.2,11.76 1.84,26.4 1.84,26.56 0.156,3.706 2.838,6.819 6.48,7.52 9.575,1.279 19.272,-1.217 27.04,-6.96 0.258,3.702 0.258,7.418 0,11.12 -9.995,4.619 -21.04,6.497 -32,5.44 -6.723,-0.476 -12.936,-3.757 -17.12,-9.04 -2.561,-3.6 -7.556,-4.443 -11.156,-1.882 -1.232,0.876 -2.19,2.083 -2.764,3.482 l -2.32,5.52 c -3.922,-3.976 -5.577,-9.66 -4.4,-15.12 1.29,-7.17 -2.426,-14.306 -9.04,-17.36 -11.76,-4.96 -28.8,4.96 -36.56,14 -6.147,5.403 -7.711,14.353 -3.76,21.52 6.4,10.32 29.92,43.44 64,35.6 8,-1.84 26.72,-0.48 61.2,28.8 l 1.12,0.88 c 2.08,2.4 9.76,16.72 16,28.24 22.4,41.76 25.44,45.6 31.12,46.88 1.33,0.142 2.67,0.142 4,0 15.464,-0.999 30.429,-5.868 43.52,-14.16 -21.091,90.858 -101.927,155.262 -195.2,155.52 z m 199.36,-178.16 c -12.844,11.809 -29.076,19.281 -46.4,21.36 -4.48,-5.92 -15.36,-26.24 -22.08,-38.88 -12.8,-24 -16,-30.16 -19.44,-32.64 l -1.36,-1.12 c -30.4,-25.76 -56,-36.64 -75.12,-32 -24,5.52 -42.08,-20.4 -46.88,-27.68 1.668,-3.686 4.471,-6.741 8,-8.72 3.48,-2.597 7.6,-4.2 11.92,-4.64 0.031,0.453 0.031,0.907 0,1.36 -2.32,26.4 16.48,34.08 24,34.8 3.44,0.269 6.665,-1.698 8,-4.88 l 0.88,-2.08 c 14.8,9.76 34.48,7.04 43.52,5.04 9.04,-2 22.96,-6.24 24.56,-14.56 0,0 4.72,-28.32 -7.12,-34.8 -5.121,-2.565 -11.336,-1.235 -14.96,3.2 -3.105,3 -6.983,5.077 -11.2,6 0,-4.96 -0.72,-11.52 -1.36,-17.76 6.24,-5.52 35.6,-15.12 62.24,-21.6 46.822,43.235 70.236,106.197 63.04,169.52 z"
       inkscape:connector-curvature="0" />
    <path
       id="path4661"
       d="m 349.824,294.948 -13.28,-8.72 c -0.757,-0.512 -1.595,-0.891 -2.48,-1.12 -1.52,0 -14.8,-4.32 -10.88,-23.28 6.72,-32.64 -3.6,-49.92 -35.84,-59.68 -8,-2.4 -15.52,-5.36 -22.88,-8 -21.726,-10.276 -45.687,-14.925 -69.68,-13.52 -3.243,0.277 -5.995,2.491 -6.96,5.6 0,0 -6.48,20.16 -24,23.36 -10.95,2.049 -18.603,12.012 -17.76,23.12 0,18.88 13.6,43.28 32.88,47.6 l 2.24,0.48 c 22.16,4.88 41.28,9.12 32,61.68 -4.64,26.64 -2.24,45.76 7.04,56.8 5.615,6.38 13.831,9.855 22.32,9.44 18.4,0 43.12,-14 73.6,-41.68 46.64,-42.32 50,-56 46.8,-64 -2.224,-5.198 -7.478,-8.434 -13.12,-8.08 z m -44.4,60.56 c -35.92,32.64 -54.8,37.2 -62.88,37.2 -3.751,0.361 -7.455,-1.061 -10,-3.84 -5.84,-6.96 -7.12,-22.96 -3.52,-43.76 11.52,-67.68 -22,-75.12 -44.48,-80.4 h -2.08 c -10.8,-2.4 -20.64,-19.92 -20.4,-32 0,-6.88 3.2,-7.44 4.72,-8 15.537,-3.501 28.382,-14.374 34.4,-29.12 19.915,-0.085 39.596,4.289 57.6,12.8 8,3.04 15.6,6.08 24,8.64 24,7.28 29.84,16.8 24.8,41.12 -5.36,26.56 10.8,38.56 20.96,42.08 l 14.32,9.6 c 1.008,0.676 2.157,1.114 3.36,1.28 -2.48,5.28 -11.6,17.6 -40.8,44.4 z"
       inkscape:connector-curvature="0" />
    <g
       id="g4663">
</g>
    <g
       id="g4665">
</g>
    <g
       id="g4667">
</g>
    <g
       id="g4669">
</g>
    <g
       id="g4671">
</g>
    <g
       id="g4673">
</g>
    <g
       id="g4675">
</g>
    <g
       id="g4677">
</g>
    <g
       id="g4679">
</g>
    <g
       id="g4681">
</g>
    <g
       id="g4683">
</g>
    <g
       id="g4685">
</g>
    <g
       id="g4687">
</g>
    <g
       id="g4689">
</g>
    <g
       id="g4691">
</g>
  </g>
  <g
     id="g4557"
     transform="matrix(-0.81257433,0,0,0.81257433,300.43781,71.625641)">
    <g
       id="g4736">
      <path
         style="fill:#d3a06c"
         inkscape:connector-curvature="0"
         d="m -147.84945,452.33305 c -17.67969,0 -32,-14.32031 -32,-32 v -112 h 64 v 112 c 0,17.67969 -14.32031,32 -32,32 z m 0,-24 c 4.39844,0 8,-3.60156 8,-8 0,-4.39844 -3.60156,-8 -8,-8 -4.39844,0 -8,3.60156 -8,8 0,4.39844 3.60156,8 8,8 z m 0,0"
         id="path12" />
      <path
         style="fill:#838f9b"
         inkscape:connector-curvature="0"
         d="m -131.84945,259.37211 v 48.96094 h -32 v -48.96094 c 5.28125,0.64063 10.55859,0.96094 16,0.96094 5.44141,0 10.71875,-0.32031 16,-0.96094 z m 0,0"
         id="path14" />
      <path
         style="fill:#ffffff;fill-opacity:1"
         inkscape:connector-curvature="0"
         d="m -20.24789,122.01274 c 0.23828,3.35937 0.39844,6.8789 0.39844,10.32031 0,14 -2.23828,27.44141 -6.39844,40 -6.80078,20.80078 -18.80078,39.19922 -34.40234,53.67969 -19.19922,17.92187 -43.83985,29.92187 -71.19922,33.35937 -5.28125,0.64063 -10.55859,0.96094 -16,0.96094 -5.44141,0 -10.71875,-0.32031 -16,-0.96094 -63.12109,-7.91797 -112,-61.75781 -112,-127.03906 0,-70.718747 57.28125,-127.9999966 128,-127.9999966 30.07812,0 57.67969,10.3203116 79.51953,27.6796876 27.03906,21.441406 45.19922,53.519532 48.08203,89.999999 z m 0,0"
         id="path16" />
      <path
         inkscape:connector-curvature="0"
         d="m -43.84945,132.33305 c 0,-57.343747 -46.65625,-103.999997 -104,-103.999997 -57.34375,0 -104,46.65625 -104,103.999997 0,57.34375 46.65625,104 104,104 57.34375,0 104,-46.65625 104,-104 z m -192,0 c 0,-48.519527 39.48047,-87.999997 88,-87.999997 48.51953,0 88,39.48047 88,87.999997 0,48.51953 -39.48047,88 -88,88 -48.51953,0 -88,-39.48047 -88,-88 z m 0,0"
         id="path20" />
      <path
         inkscape:connector-curvature="0"
         d="m -139.84945,420.33305 c 0,4.41797 -3.58203,8 -8,8 -4.41797,0 -8,-3.58203 -8,-8 0,-4.41797 3.58203,-8 8,-8 4.41797,0 8,3.58203 8,8 z m 0,0"
         id="path22" />
      <path
         style="fill:#ff0000;fill-opacity:1;stroke:none;stroke-opacity:1"
         inkscape:connector-curvature="0"
         d="m -75.84945,148.33305 h -16 v -48 h -16 v 48 h -16 V 68.333053 h -16 v 79.999997 h -16 V 84.333053 h -16 v 63.999997 h -16 v -32 h -16 v 32 h -16 v 16 h 144 z m 0,0"
         id="path26" />
      <path
         inkscape:connector-curvature="0"
         id="path4567"
         d="m -146.06258,11.458012 c 44.69531,0.564901 87.983068,27.712068 106.889564,68.39678 18.949643,38.600658 15.273397,87.553438 -10.250603,122.350508 -26.521186,37.91581 -75.966541,58.33948 -121.430341,48.61458 -25.86532,-4.92179 -49.81668,-18.56052 -67.06524,-38.48916 -36.50585,-38.78635 -40.64732,-102.79127 -10.614,-146.554081 22.26324,-33.736897 61.9101,-55.261425 102.47062,-54.318627 z m -4.1644,18.053232 c -38.76348,0.274024 -75.65108,24.734624 -91.17561,60.2586 -8.26083,16.972416 -10.67772,36.157666 -8.47018,54.747626 4.75052,48.54559 48.98321,90.18184 97.82528,90.23537 29.6337,2.28933 59.592245,-10.82832 79.506403,-32.71262 30.007935,-30.72327 36.043643,-80.86355 15.43725,-117.971111 C -74.764972,50.140586 -112.02422,28.018533 -150.22698,29.511244 Z"
         style="opacity:1;vector-effect:none;fill:#ababab;fill-opacity:1;stroke:none;stroke-width:20.60804176;stroke-linecap:butt;stroke-linejoin:miter;stroke-miterlimit:4;stroke-dasharray:none;stroke-dashoffset:0;stroke-opacity:1" />
      <path
         style="opacity:1;vector-effect:none;fill:#121212;fill-opacity:1;stroke:none;stroke-width:23.14675331;stroke-linecap:butt;stroke-linejoin:miter;stroke-miterlimit:4;stroke-dasharray:none;stroke-dashoffset:0;stroke-opacity:1"
         d="m -145.84257,-3.4320516 c 50.20134,0.634491 98.82173,31.1259266 120.05733,76.8226046 21.2840503,43.355877 17.1549303,98.339167 -11.51338,137.422907 -29.78834,42.58667 -85.32489,65.52634 -136.38939,54.60342 -29.05167,-5.52811 -55.95361,-20.84699 -75.32703,-43.23065 -41.00301,-43.56446 -45.65467,-115.45416 -11.92153,-164.608126 25.00584,-37.892956 69.53681,-62.0690976 115.094,-61.0101556 z m -4.67741,20.2772146 c -43.53877,0.307781 -84.97056,27.781691 -102.40756,67.68188 -9.2785,19.063247 -11.99311,40.611937 -9.51363,61.491997 5.33574,54.52594 55.01747,101.29137 109.87641,101.35149 33.28429,2.57136 66.93343,-12.16226 89.30082,-36.74249 33.70462,-34.50808 40.48387,-90.82516 17.33897,-132.504007 -19.83682,-38.108193 -61.68604,-62.955469 -104.59501,-61.27887 z"
         id="path4726"
         inkscape:connector-curvature="0" />
    </g>
  </g>
</svg>
